<svg xmlns="http://www.w3.org/2000/svg" xmlns:svg="http://www.w3.org/2000/svg" id="svg12" width="195" height="195" class="icon icon-medium" version="1.1" viewBox="0 0 195 195"><metadata id="metadata16"/><title id="title2">Monogram</title><desc id="desc4">Created with Sketch.</desc><path id="Rectangle-path" d="M 0 0 L 0 195 L 195 195 L 195 0 L 0 0 z M 32.650391 44 L 70.630859 44 L 99.986328 108.38086 L 125.79492 44 L 162 44 L 162 46.201172 L 151.54297 56.228516 C 150.64137 56.915763 150.19403 58.04415 150.38086 59.162109 L 150.38086 132.83789 C 150.19403 133.95585 150.64137 135.08423 151.54297 135.77148 L 161.75586 145.79883 L 161.75586 148 L 110.38281 148 L 110.38281 145.79883 L 120.96289 135.52734 C 122.00257 134.48795 122.00195 134.18146 122.00195 132.5918 L 122.00195 73.041016 L 92.585938 147.75586 L 88.611328 147.75586 L 54.361328 73.041016 L 54.361328 123.11523 C 54.075778 125.22049 54.775562 127.34086 56.257812 128.86328 L 70.019531 145.55469 L 70.019531 147.75586 L 31 147.75586 L 31 145.55469 L 44.759766 128.86328 C 46.231224 127.33834 46.889507 125.20391 46.533203 123.11523 L 46.533203 65.214844 C 46.695961 63.606746 46.083593 62.017858 44.882812 60.935547 L 32.650391 46.201172 L 32.650391 44 z"/></svg>